<?xml version="1.0" standalone="no"?><!DOCTYPE svg PUBLIC "-//W3C//DTD SVG 1.1//EN" "http://www.w3.org/Graphics/SVG/1.1/DTD/svg11.dtd"><svg t="1677581241937" class="icon" viewBox="0 0 1024 1024" version="1.1" xmlns="http://www.w3.org/2000/svg" p-id="2161" width="128" height="128" xmlns:xlink="http://www.w3.org/1999/xlink"><path d="M512 0C230.4 0 0 230.4 0 512s230.4 512 512 512 512-230.4 512-512S793.6 0 512 0z m179.2 307.2c40.96 0 76.8 35.84 76.8 76.8s-35.84 76.8-76.8 76.8S614.4 424.96 614.4 384 650.24 307.2 691.2 307.2z m-358.4 0c40.96 0 76.8 35.84 76.8 76.8s-35.84 76.8-76.8 76.8-76.8-35.84-76.8-76.8S291.84 307.2 332.8 307.2zM512 819.2c-133.12 0-245.76-87.04-286.72-204.8h573.44c-40.96 117.76-153.6 204.8-286.72 204.8z" p-id="2162" fill="#BFCBD9"></path></svg>